<svg width="165" height="165" viewBox="0 0 165 165" fill="none" xmlns="http://www.w3.org/2000/svg">
<path d="M7.64441 161.517C7.38296 160.731 6.53385 160.306 5.74792 160.567C4.19726 161.083 2.63406 161.584 1.05945 162.067C0.26765 162.31 -0.17686 163.149 0.0662842 163.941C0.309538 164.733 1.14845 165.177 1.94031 164.934C3.53711 164.444 5.12171 163.937 6.69421 163.414C7.48028 163.152 7.9059 162.303 7.64441 161.517ZM26.0253 154.298C25.6927 153.54 24.8075 153.194 24.0487 153.527C21.0751 154.83 18.0521 156.075 14.9794 157.257C14.2063 157.555 13.8207 158.423 14.118 159.196C14.4155 159.969 15.2833 160.355 16.0565 160.057C19.1727 158.858 22.2386 157.596 25.2538 156.274C26.0122 155.941 26.3578 155.057 26.0253 154.298ZM43.6747 145.446C43.2756 144.72 42.3635 144.455 41.6376 144.854C38.7902 146.42 35.891 147.932 32.9403 149.387C32.1974 149.754 31.8923 150.653 32.2587 151.396C32.6251 152.139 33.5245 152.444 34.2675 152.078C37.2586 150.602 40.1972 149.07 43.0829 147.483C43.8087 147.084 44.0735 146.172 43.6747 145.446ZM60.4862 135.08C60.0262 134.391 59.0951 134.205 58.4061 134.665C55.7001 136.471 52.9403 138.232 50.1268 139.942C49.419 140.372 49.1936 141.296 49.6239 142.004C50.0542 142.711 50.9776 142.936 51.6854 142.505C54.5358 140.773 57.3315 138.989 60.0722 137.16C60.761 136.7 60.9461 135.769 60.4862 135.08ZM76.3817 123.342C75.8672 122.693 74.9245 122.584 74.2753 123.098C71.7256 125.119 69.12 127.103 66.4589 129.044C65.7895 129.532 65.6427 130.47 66.1307 131.139C66.6189 131.808 67.5572 131.955 68.2264 131.467C70.9208 129.503 73.558 127.494 76.1386 125.449C76.7875 124.934 76.8962 123.992 76.3817 123.342ZM91.2958 110.394C90.7328 109.786 89.7834 109.75 89.1757 110.313C86.7915 112.522 84.3497 114.702 81.8495 116.848C81.221 117.388 81.148 118.335 81.6874 118.963C82.2269 119.592 83.174 119.664 83.8026 119.125C86.3324 116.953 88.8032 114.747 91.2147 112.513C91.8224 111.95 91.8586 111.002 91.2958 110.394ZM105.21 96.3697C104.604 95.8045 103.655 95.8366 103.09 96.442C100.872 98.8181 98.5924 101.177 96.2518 103.51C95.6653 104.095 95.6642 105.045 96.2489 105.631C96.8338 106.218 97.7834 106.22 98.37 105.635C100.736 103.276 103.041 100.892 105.283 98.4899C105.848 97.8843 105.815 96.935 105.21 96.3697ZM118.104 81.402C117.461 80.8797 116.517 80.9777 115.995 81.6207C113.953 84.135 111.844 86.6431 109.672 89.1393C109.128 89.7642 109.194 90.7116 109.819 91.2555C110.444 91.7993 111.392 91.7339 111.935 91.109C114.131 88.5867 116.26 86.0514 118.323 83.5113C118.845 82.8683 118.747 81.9242 118.104 81.402ZM129.968 65.5973C129.292 65.1189 128.355 65.2788 127.877 65.9547C126.008 68.5945 124.068 71.2447 122.057 73.8961C121.557 74.5561 121.687 75.4971 122.347 75.9977C123.007 76.4983 123.948 76.3687 124.448 75.7086C126.479 73.0305 128.438 70.3542 130.325 67.6881C130.804 67.0119 130.644 66.0759 129.968 65.5973ZM140.763 49.0572C140.056 48.624 139.133 48.8453 138.7 49.5514C137.021 52.2883 135.261 55.0558 133.421 57.8444C132.965 58.5358 133.155 59.4662 133.847 59.9225C134.538 60.3787 135.468 60.188 135.925 59.4967C137.783 56.6803 139.56 53.8842 141.257 51.1197C141.69 50.4137 141.469 49.4905 140.763 49.0572ZM150.435 31.8248C149.702 31.4408 148.795 31.7239 148.411 32.4576C146.937 35.2745 145.368 38.1552 143.702 41.0856C143.293 41.8057 143.545 42.721 144.265 43.1305C144.985 43.5399 145.901 43.2882 146.31 42.568C147.993 39.6074 149.579 36.6968 151.069 33.8492C151.453 33.1153 151.169 32.209 150.435 31.8248ZM158.811 13.9391C158.049 13.6145 157.168 13.9691 156.844 14.7311C155.621 17.5993 154.272 20.5938 152.795 23.693C152.438 24.4407 152.755 25.3355 153.503 25.692C154.251 26.0485 155.146 25.7317 155.503 24.984C156.998 21.8478 158.364 18.8146 159.603 15.9069C159.928 15.1448 159.573 14.2639 158.811 13.9391ZM163.973 0.0767768C163.186 -0.184217 162.337 0.241736 162.076 1.02795C161.588 2.49902 161.051 4.03386 160.466 5.62658C160.18 6.40405 160.579 7.26564 161.356 7.55139C162.134 7.83717 162.996 7.43834 163.282 6.66076C163.878 5.04001 164.425 3.47577 164.924 1.97326C165.185 1.18705 164.759 0.337799 163.973 0.0767768Z" fill="#E0E7EF"/>
</svg>
