<svg width="165" height="165" viewBox="0 0 165 165" fill="none" xmlns="http://www.w3.org/2000/svg">
<path d="M157.356 161.517C157.618 160.731 158.467 160.306 159.253 160.567C160.803 161.083 162.366 161.584 163.941 162.067C164.733 162.31 165.177 163.149 164.934 163.941C164.691 164.733 163.852 165.177 163.06 164.934C161.463 164.444 159.879 163.937 158.306 163.414C157.52 163.152 157.095 162.303 157.356 161.517ZM138.975 154.298C139.308 153.54 140.193 153.194 140.952 153.527C143.925 154.83 146.948 156.075 150.021 157.257C150.794 157.555 151.18 158.423 150.882 159.196C150.585 159.969 149.717 160.355 148.944 160.057C145.828 158.858 142.762 157.596 139.747 156.274C138.988 155.941 138.643 155.057 138.975 154.298ZM121.326 145.446C121.725 144.72 122.637 144.455 123.363 144.854C126.21 146.42 129.109 147.932 132.06 149.387C132.803 149.754 133.108 150.653 132.742 151.396C132.375 152.139 131.476 152.444 130.733 152.078C127.742 150.602 124.803 149.07 121.918 147.483C121.192 147.084 120.927 146.172 121.326 145.446ZM104.514 135.08C104.974 134.391 105.905 134.205 106.594 134.665C109.3 136.471 112.06 138.232 114.874 139.942C115.581 140.372 115.807 141.296 115.377 142.004C114.946 142.711 114.023 142.936 113.315 142.505C110.465 140.773 107.669 138.989 104.928 137.16C104.24 136.7 104.054 135.769 104.514 135.08ZM88.6188 123.342C89.1333 122.693 90.076 122.584 90.7252 123.098C93.2749 125.119 95.8804 127.103 98.5416 129.044C99.211 129.532 99.3578 130.47 98.8697 131.139C98.3816 131.808 97.4433 131.955 96.774 131.467C94.0797 129.503 91.4425 127.494 88.8619 125.449C88.213 124.934 88.1043 123.992 88.6188 123.342ZM73.7047 110.394C74.2677 109.786 75.2171 109.75 75.8248 110.313C78.209 112.522 80.6508 114.702 83.151 116.848C83.7795 117.388 83.8525 118.335 83.3131 118.963C82.7736 119.592 81.8265 119.664 81.1979 119.125C78.668 116.953 76.1973 114.747 73.7858 112.513C73.1781 111.95 73.1419 111.002 73.7047 110.394ZM59.7906 96.3697C60.3961 95.8045 61.3454 95.8366 61.9108 96.442C64.1289 98.8181 66.4081 101.177 68.7486 103.51C69.3352 104.095 69.3363 105.045 68.7516 105.631C68.1667 106.218 67.2171 106.22 66.6305 105.635C64.264 103.276 61.9595 100.892 59.7174 98.4899C59.1521 97.8843 59.1851 96.935 59.7906 96.3697ZM46.8961 81.402C47.5391 80.8797 48.4832 80.9777 49.0055 81.6207C51.0479 84.135 53.1561 86.6431 55.3287 89.1393C55.8726 89.7642 55.8062 90.7116 55.1813 91.2555C54.5564 91.7993 53.6089 91.7339 53.0651 91.109C50.8697 88.5867 48.7407 86.0514 46.6774 83.5113C46.1552 82.8683 46.2532 81.9242 46.8961 81.402ZM35.0328 65.5973C35.7089 65.1189 36.645 65.2788 37.1237 65.9547C38.9921 68.5945 40.932 71.2447 42.943 73.8961C43.4434 74.5561 43.3139 75.4971 42.6539 75.9977C41.9939 76.4983 41.053 76.3687 40.5524 75.7086C38.5211 73.0305 36.5625 70.3542 34.6754 67.6881C34.1968 67.0119 34.3566 66.0759 35.0328 65.5973ZM24.2379 49.0572C24.944 48.624 25.8671 48.8453 26.3004 49.5514C27.9798 52.2883 29.7398 55.0558 31.5797 57.8444C32.0358 58.5358 31.8453 59.4662 31.1539 59.9225C30.4625 60.3787 29.5321 60.188 29.0758 59.4967C27.2175 56.6803 25.4401 53.8842 23.7438 51.1197C23.3108 50.4137 23.5319 49.4905 24.2379 49.0572ZM14.5651 31.8248C15.299 31.4408 16.2053 31.7239 16.5895 32.4576C18.0633 35.2745 19.6328 38.1552 21.2985 41.0856C21.7078 41.8057 21.4559 42.721 20.736 43.1305C20.0157 43.5399 19.0994 43.2882 18.6901 42.568C17.0072 39.6074 15.4212 36.6968 13.9313 33.8492C13.5473 33.1153 13.8312 32.209 14.5651 31.8248ZM6.18908 13.9391C6.95107 13.6145 7.83207 13.9691 8.15685 14.7311C9.37946 17.5993 10.7283 20.5938 12.2057 23.693C12.5621 24.4407 12.2454 25.3355 11.4977 25.692C10.7499 26.0485 9.85422 25.7317 9.49767 24.984C8.00263 21.8478 6.63656 18.8146 5.39709 15.9069C5.07244 15.1448 5.42709 14.2639 6.18908 13.9391ZM1.02795 0.0767768C1.81416 -0.184217 2.66341 0.241736 2.92443 1.02795C3.41283 2.49902 3.94941 4.03386 4.53478 5.62658C4.8203 6.40405 4.42159 7.26564 3.64416 7.55139C2.86659 7.83717 2.00416 7.43834 1.71838 6.66076C1.12271 5.04001 0.575611 3.47577 0.0767768 1.97326C-0.184217 1.18705 0.241736 0.337799 1.02795 0.0767768Z" fill="#E0E7EF"/>
</svg>
